HIERARCHY
ROOT Hips
{
	OFFSET 0.000000 83.214638 0.000000
	CHANNELS 6 Xposition Yposition Zposition Xrotation Yrotation Zrotation
	JOINT Pelvis
	{
		OFFSET 0.000000 0.000000 0.000000
		CHANNELS 3 Xrotation Yrotation Zrotation
		JOINT LeftUpLeg
		{
			OFFSET 8.479700 -4.795502 -0.379100
			CHANNELS 3 Xrotation Yrotation Zrotation
			JOINT LeftLeg
			{
				OFFSET 0.024144 -32.555107 0.112900
				CHANNELS 3 Xrotation Yrotation Zrotation
				JOINT LeftFoot
				{
					OFFSET -0.024144 -32.638630 -3.012600
					CHANNELS 3 Xrotation Yrotation Zrotation
					JOINT LeftToeBase
					{
						OFFSET 0.970200 -13.225400 11.864200
						CHANNELS 3 Xrotation Yrotation Zrotation
						End Site
						{
							OFFSET 0.000000 12.319262 0.000000
						}
					}
					JOINT LFootTongue
					{
						OFFSET 1.142400 -1.059800 6.665200
						CHANNELS 3 Xrotation Yrotation Zrotation
						End Site
						{
							OFFSET 0.000000 12.319262 0.000000
						}
					}
				}
				JOINT LeftPantLeg
				{
					OFFSET 0.918482 -16.533964 -2.284700
					CHANNELS 3 Xrotation Yrotation Zrotation
					End Site
					{
						OFFSET 0.350399 24.744368 0.000000
					}
				}
			}
		}
		JOINT RightUpLeg
		{
			OFFSET -8.479700 -4.795502 -0.379100
			CHANNELS 3 Xrotation Yrotation Zrotation
			JOINT RightLeg
			{
				OFFSET -0.023144 -32.555092 0.112900
				CHANNELS 3 Xrotation Yrotation Zrotation
				JOINT RightFoot
				{
					OFFSET 0.023144 -32.638641 -3.012700
					CHANNELS 3 Xrotation Yrotation Zrotation
					JOINT RightToeBase
					{
						OFFSET -0.970200 -13.225400 11.864200
						CHANNELS 3 Xrotation Yrotation Zrotation
						End Site
						{
							OFFSET 0.000000 12.319244 0.000000
						}
					}
					JOINT RFootTongue
					{
						OFFSET -1.142200 -1.059800 6.665200
						CHANNELS 3 Xrotation Yrotation Zrotation
						End Site
						{
							OFFSET 0.000000 12.319243 0.000000
						}
					}
				}
				JOINT RightPantLeg
				{
					OFFSET -0.919482 -16.533978 -2.284800
					CHANNELS 3 Xrotation Yrotation Zrotation
					End Site
					{
						OFFSET -0.350400 24.744419 0.000000
					}
				}
			}
		}
	}
	JOINT Spine
	{
		OFFSET 0.000000 7.722000 1.166200
		CHANNELS 3 Xrotation Yrotation Zrotation
		JOINT Spine1
		{
			OFFSET 0.000000 12.024101 0.248800
			CHANNELS 3 Xrotation Yrotation Zrotation
			JOINT Spine2
			{
				OFFSET 0.000000 11.502998 -0.491200
				CHANNELS 3 Xrotation Yrotation Zrotation
				JOINT Neck
				{
					OFFSET 0.000000 18.430702 -3.123100
					CHANNELS 3 Xrotation Yrotation Zrotation
					JOINT Head
					{
						OFFSET 0.000000 9.051102 1.034000
						CHANNELS 3 Xrotation Yrotation Zrotation
						JOINT HairB
						{
							OFFSET 0.208400 24.786102 24.822300
							CHANNELS 3 Xrotation Yrotation Zrotation
							End Site
							{
								OFFSET 0.000000 32.263779 0.000000
							}
						}
						JOINT HairA
						{
							OFFSET -7.081100 24.428299 23.196600
							CHANNELS 3 Xrotation Yrotation Zrotation
							End Site
							{
								OFFSET 0.000000 32.263779 0.000000
							}
						}
						JOINT Hat
						{
							OFFSET 16.728800 15.048294 -15.439601
							CHANNELS 3 Xrotation Yrotation Zrotation
							End Site
							{
								OFFSET 0.000000 32.263779 0.000000
							}
						}
					}
				}
				JOINT LeftShoulder
				{
					OFFSET 6.197800 13.665199 -4.064700
					CHANNELS 3 Xrotation Yrotation Zrotation
					JOINT LeftArm
					{
						OFFSET 7.778100 -0.187103 -1.709300
						CHANNELS 3 Xrotation Yrotation Zrotation
						JOINT LeftForeArm
						{
							OFFSET 22.049376 0.000000 0.000000
							CHANNELS 3 Xrotation Yrotation Zrotation
							JOINT LeftHand
							{
								OFFSET 23.009392 0.000000 0.000000
								CHANNELS 3 Xrotation Yrotation Zrotation
								JOINT LeftHandThumb1
								{
									OFFSET 3.507191 -2.063065 3.133727
									CHANNELS 3 Xrotation Yrotation Zrotation
									JOINT LeftHandThumb2
									{
										OFFSET 3.101337 -1.790558 1.790558
										CHANNELS 3 Xrotation Yrotation Zrotation
										JOINT LeftHandThumb3
										{
											OFFSET 3.058640 -1.765907 1.765906
											CHANNELS 3 Xrotation Yrotation Zrotation
											End Site
											{
												OFFSET -0.415260 3.926476 -0.049563
											}
										}
									}
								}
								JOINT LeftHandIndex1
								{
									OFFSET 11.334419 -0.901459 3.706815
									CHANNELS 3 Xrotation Yrotation Zrotation
									JOINT LeftHandIndex2
									{
										OFFSET 3.283112 0.000000 0.000000
										CHANNELS 3 Xrotation Yrotation Zrotation
										JOINT LeftHandIndex3
										{
											OFFSET 3.323853 0.000000 0.000000
											CHANNELS 3 Xrotation Yrotation Zrotation
											End Site
											{
												OFFSET -1.135597 3.097809 0.402452
											}
										}
									}
								}
								JOINT LeftHandMiddle1
								{
									OFFSET 11.335861 0.000000 0.000000
									CHANNELS 3 Xrotation Yrotation Zrotation
									JOINT LeftHandMiddle2
									{
										OFFSET 3.410492 0.000000 0.000000
										CHANNELS 3 Xrotation Yrotation Zrotation
										JOINT LeftHandMiddle3
										{
											OFFSET 3.312172 0.000000 0.000000
											CHANNELS 3 Xrotation Yrotation Zrotation
											End Site
											{
												OFFSET -1.150200 3.080154 0.400270
											}
										}
									}
								}
								JOINT LeftHandRing1
								{
									OFFSET 11.514786 -0.013176 -3.003090
									CHANNELS 3 Xrotation Yrotation Zrotation
									JOINT LeftHandRing2
									{
										OFFSET 3.053307 0.000000 0.000000
										CHANNELS 3 Xrotation Yrotation Zrotation
										JOINT LeftHandRing3
										{
											OFFSET 3.295807 0.000000 0.000000
											CHANNELS 3 Xrotation Yrotation Zrotation
											End Site
											{
												OFFSET -1.281006 3.013344 0.375733
											}
										}
									}
								}
								JOINT LeftHandPinky1
								{
									OFFSET 10.518692 -0.960396 -5.730441
									CHANNELS 3 Xrotation Yrotation Zrotation
									JOINT LeftHandPinky2
									{
										OFFSET 2.861649 0.000000 0.000000
										CHANNELS 3 Xrotation Yrotation Zrotation
										JOINT LeftHandPinky3
										{
											OFFSET 2.863380 0.000000 0.000000
											CHANNELS 3 Xrotation Yrotation Zrotation
											End Site
											{
												OFFSET -0.843597 2.711159 0.369971
											}
										}
									}
								}
							}
							JOINT LSleeve
							{
								OFFSET 6.676277 -0.344902 -1.011730
								CHANNELS 3 Xrotation Yrotation Zrotation
								End Site
								{
									OFFSET 0.000000 14.885353 0.000000
								}
							}
						}
					}
				}
				JOINT RightShoulder
				{
					OFFSET -6.197800 13.665199 -4.064700
					CHANNELS 3 Xrotation Yrotation Zrotation
					JOINT RightArm
					{
						OFFSET -7.778100 -0.187103 -1.709300
						CHANNELS 3 Xrotation Yrotation Zrotation
						JOINT RightForeArm
						{
							OFFSET -22.049376 0.000000 0.000000
							CHANNELS 3 Xrotation Yrotation Zrotation
							JOINT RightHand
							{
								OFFSET -23.009392 0.000000 0.000000
								CHANNELS 3 Xrotation Yrotation Zrotation
								JOINT RightHandThumb1
								{
									OFFSET -3.507191 -2.063065 3.133727
									CHANNELS 3 Xrotation Yrotation Zrotation
									JOINT RightHandThumb2
									{
										OFFSET -3.101337 -1.790558 1.790558
										CHANNELS 3 Xrotation Yrotation Zrotation
										JOINT RightHandThumb3
										{
											OFFSET -3.058640 -1.765907 1.765906
											CHANNELS 3 Xrotation Yrotation Zrotation
											End Site
											{
												OFFSET 0.415260 3.926476 -0.049563
											}
										}
									}
								}
								JOINT RightHandIndex1
								{
									OFFSET -11.334419 -0.901459 3.706815
									CHANNELS 3 Xrotation Yrotation Zrotation
									JOINT RightHandIndex2
									{
										OFFSET -3.283112 0.000000 0.000000
										CHANNELS 3 Xrotation Yrotation Zrotation
										JOINT RightHandIndex3
										{
											OFFSET -3.323853 0.000000 0.000000
											CHANNELS 3 Xrotation Yrotation Zrotation
											End Site
											{
												OFFSET 1.135597 3.097809 0.402452
											}
										}
									}
								}
								JOINT RightHandMiddle1
								{
									OFFSET -11.335861 0.000000 0.000000
									CHANNELS 3 Xrotation Yrotation Zrotation
									JOINT RightHandMiddle2
									{
										OFFSET -3.410492 0.000000 0.000000
										CHANNELS 3 Xrotation Yrotation Zrotation
										JOINT RightHandMiddle3
										{
											OFFSET -3.312172 0.000000 0.000000
											CHANNELS 3 Xrotation Yrotation Zrotation
											End Site
											{
												OFFSET 1.150200 3.080154 0.400270
											}
										}
									}
								}
								JOINT RightHandRing1
								{
									OFFSET -11.514786 -0.013176 -3.003090
									CHANNELS 3 Xrotation Yrotation Zrotation
									JOINT RightHandRing2
									{
										OFFSET -3.053307 0.000000 0.000000
										CHANNELS 3 Xrotation Yrotation Zrotation
										JOINT RightHandRing3
										{
											OFFSET -3.295807 0.000000 0.000000
											CHANNELS 3 Xrotation Yrotation Zrotation
											End Site
											{
												OFFSET 1.281006 3.013344 0.375733
											}
										}
									}
								}
								JOINT RightHandPinky1
								{
									OFFSET -10.518692 -0.960396 -5.730441
									CHANNELS 3 Xrotation Yrotation Zrotation
									JOINT RightHandPinky2
									{
										OFFSET -2.861649 0.000000 0.000000
										CHANNELS 3 Xrotation Yrotation Zrotation
										JOINT RightHandPinky3
										{
											OFFSET -2.863380 0.000000 0.000000
											CHANNELS 3 Xrotation Yrotation Zrotation
											End Site
											{
												OFFSET 0.843597 2.711159 0.369971
											}
										}
									}
								}
							}
							JOINT RSleeve
							{
								OFFSET -6.676277 -0.344902 -1.011730
								CHANNELS 3 Xrotation Yrotation Zrotation
								End Site
								{
									OFFSET 0.000000 14.885353 0.000000
								}
							}
						}
					}
				}
				JOINT Backpack
				{
					OFFSET 0.000000 -2.471497 36.677502
					CHANNELS 3 Xrotation Yrotation Zrotation
					End Site
					{
						OFFSET 0.000000 20.427315 0.000000
					}
				}
				JOINT Hood
				{
					OFFSET 0.000000 18.754097 -10.431000
					CHANNELS 3 Xrotation Yrotation Zrotation
					JOINT Hood1
					{
						OFFSET 0.000000 -5.011002 -7.685901
						CHANNELS 3 Xrotation Yrotation Zrotation
						End Site
						{
							OFFSET 0.000000 9.175140 0.000000
						}
					}
				}
				JOINT LHoodieString
				{
					OFFSET 5.250500 16.397697 3.089900
					CHANNELS 3 Xrotation Yrotation Zrotation
					JOINT LHoodieString1
					{
						OFFSET 0.257700 -6.364304 3.694600
						CHANNELS 3 Xrotation Yrotation Zrotation
						JOINT LHoodieString2
						{
							OFFSET 0.000000 -9.643799 2.679100
							CHANNELS 3 Xrotation Yrotation Zrotation
							End Site
							{
								OFFSET 0.000000 10.009018 0.000000
							}
						}
					}
				}
				JOINT RHoodieString
				{
					OFFSET -5.250500 16.397697 3.089900
					CHANNELS 3 Xrotation Yrotation Zrotation
					JOINT RHoodieString1
					{
						OFFSET -0.257700 -6.364304 3.694600
						CHANNELS 3 Xrotation Yrotation Zrotation
						JOINT RHoodieString2
						{
							OFFSET 0.000000 -9.643799 2.679100
							CHANNELS 3 Xrotation Yrotation Zrotation
							End Site
							{
								OFFSET 0.000000 10.009018 0.000000
							}
						}
					}
				}
			}
			JOINT LBackpack_Strap
			{
				OFFSET 15.223200 -7.719803 -6.610900
				CHANNELS 3 Xrotation Yrotation Zrotation
				End Site
				{
					OFFSET 0.000000 16.040596 0.000000
				}
			}
			JOINT RBackpack_Strap
			{
				OFFSET -15.223000 -7.719803 -6.610900
				CHANNELS 3 Xrotation Yrotation Zrotation
				End Site
				{
					OFFSET 0.000000 16.040596 0.000000
				}
			}
		}
	}
	JOINT BoyFacialAnim_Joint
	{
		OFFSET 1.000000 -82.208099 -1.550900
		CHANNELS 3 Xrotation Yrotation Zrotation
		End Site
		{
			OFFSET 0.000000 30.012791 0.000000
		}
	}
}
MOTION
Frames: 4
Frame Time: 0.033333
0.018765 82.451050 0.246079 -3.753366 -5.223248 -3.509088 0.000000 -0.000000 0.000000 -11.794392 14.473427 10.861223 13.105916 1.996028 4.177059 1.435720 0.536003 -7.636401 -0.000000 -0.000000 0.000000 -0.000000 -0.000000 0.000000 0.000000 -0.000001 -0.000000 1.331076 -10.339556 3.344544 5.907529 -9.741984 -3.276658 -2.955305 -1.630712 3.121143 0.000000 0.000000 0.000000 0.000000 0.000000 0.000000 -0.000000 -0.000000 -0.000000 3.303639 1.533235 2.481835 1.151890 0.339457 1.552798 1.126015 0.361543 1.555886 5.626309 -0.078963 0.454683 -7.563343 1.375724 -0.080565 -0.000000 0.000000 0.000000 -0.000000 0.000000 0.000000 -0.000000 0.000000 0.000000 1.049449 -17.442065 -12.319431 3.916258 -19.989264 -69.765253 -0.000016 -1.459375 0.000005 -33.230397 -1.364825 -6.186636 -0.663004 2.160310 4.832517 11.853574 25.421604 17.058312 0.000001 -0.000002 -0.000001 -0.408385 -0.915733 -7.570069 0.268822 1.755921 -17.406715 -0.000002 -0.000001 -0.000000 -0.076313 2.665781 -15.696827 0.268784 1.755804 -17.405542 0.000003 0.000000 -0.000001 0.136914 3.641769 -21.133548 0.386614 2.094785 -20.911900 0.000000 -0.000000 0.000001 0.968597 5.535024 -27.131531 0.268811 1.755889 -17.406341 -0.000002 0.000000 0.000001 0.000004 0.000000 0.000001 1.203180 15.343656 14.705971 13.158855 27.555118 58.785164 0.000007 6.693744 0.000002 -20.179090 -0.514094 6.782781 -1.665250 -0.174478 -4.219019 12.710950 -29.825319 -16.130948 -0.000000 0.000004 0.000004 -0.390343 1.213566 6.802452 0.214481 -1.398442 17.438069 -0.000000 0.000002 0.000002 -0.136227 -2.205103 14.998909 0.214443 -1.398341 17.436891 0.000001 0.000001 0.000003 0.030607 -3.075763 20.451034 0.308437 -1.668276 20.948542 -0.000000 0.000001 -0.000003 0.789945 -4.864825 26.476820 0.214461 -1.398409 17.437698 -0.000000 -0.000001 -0.000002 0.000002 0.000000 -0.000001 -0.000000 -0.000000 -0.000000 -0.000000 -0.000000 -0.000000 -0.000000 -0.000000 -0.000000 -0.000000 -0.000000 -0.000000 -0.000000 -0.000000 -0.000000 -0.000000 -0.000000 -0.000000 -0.000000 -0.000000 -0.000000 -0.000000 -0.000000 -0.000000 -0.000000 -0.000000 -0.000000 -0.000000 0.000000 0.000000 -0.000000 0.000000 0.000000 0.000000 -0.000000 0.000000 
-0.001905 82.389580 0.253384 -3.819179 -5.207630 -3.243749 -0.000000 0.000000 -0.000000 -11.759055 14.513110 10.607074 13.314604 1.975917 4.184331 1.323960 0.551142 -7.642394 -0.000000 0.000000 0.000000 -0.000000 0.000000 0.000000 -0.000000 0.000000 -0.000001 0.541277 -10.331528 2.923601 7.523353 -9.847379 -3.276224 -3.763199 -1.647428 3.268753 0.000000 -0.000000 0.000000 0.000000 -0.000000 0.000000 0.000000 0.000000 0.000000 3.377303 1.436844 2.327102 1.244208 0.279792 1.472842 1.218723 0.301231 1.475855 5.399766 -0.034139 0.468433 -7.911005 1.818408 -0.199536 -0.000000 0.000000 -0.000000 -0.000000 0.000000 -0.000000 -0.000000 0.000000 -0.000000 0.976880 -16.886087 -12.552416 3.622615 -20.136543 -69.277297 -0.000016 -1.542335 -0.000006 -32.110215 -1.379771 -6.192404 -0.662997 2.160313 4.832516 11.853565 25.421597 17.058326 -0.000001 0.000000 0.000003 -0.413797 -0.905653 -7.664103 0.280577 1.792970 -17.786366 -0.000001 0.000000 -0.000000 -0.076116 2.669523 -15.732497 0.276164 1.779167 -17.644827 -0.000001 0.000000 -0.000001 0.137719 3.645384 -21.169248 0.395415 2.117654 -21.151262 0.000000 -0.000001 -0.000002 0.970589 5.538115 -27.167405 0.276188 1.779249 -17.645589 0.000001 0.000000 -0.000000 -0.000004 0.000001 0.000001 1.149854 15.312784 14.907240 12.331446 26.312209 58.978362 -0.000002 6.726442 0.000013 -18.763464 -0.597030 6.864493 -1.665253 -0.174478 -4.219018 12.710964 -29.825319 -16.130923 0.000001 -0.000000 -0.000002 -0.390344 1.213566 6.802451 0.214483 -1.398443 17.438067 -0.000001 0.000002 0.000002 -0.136228 -2.205099 14.998906 0.214453 -1.398350 17.436877 -0.000000 0.000000 0.000005 0.030615 -3.075758 20.451031 0.308441 -1.668283 20.948537 -0.000000 0.000001 -0.000001 0.789954 -4.864816 26.476815 0.214467 -1.398417 17.437685 -0.000000 -0.000001 0.000000 0.000002 -0.000000 0.000000 0.000000 0.000000 -0.000000 0.000000 0.000000 -0.000000 0.000000 0.000000 -0.000000 0.000000 0.000000 -0.000000 0.000000 0.000000 -0.000000 0.000000 0.000000 -0.000000 0.000000 0.000000 -0.000000 0.000000 0.000000 -0.000000 0.000000 0.000000 -0.000000 -0.000000 0.000000 -0.000000 -0.000000 0.000000 -0.000000 -0.000000 0.000000 -0.000000 
-0.024074 82.336243 0.262234 -3.888831 -5.181401 -2.982225 0.000000 -0.000000 -0.000000 -11.687853 14.564762 10.351521 13.455176 1.948760 4.188688 1.245129 0.553235 -7.645076 -0.000000 0.000000 0.000000 -0.000000 0.000000 0.000000 -0.000000 0.000001 0.000001 -0.087200 -10.310021 2.540292 8.838202 -9.952376 -3.283062 -4.426921 -1.665250 3.396579 -0.000000 0.000000 0.000000 -0.000000 0.000000 0.000000 -0.000000 -0.000002 0.000000 3.458037 1.332822 2.180100 1.346920 0.214343 1.389401 1.321869 0.235114 1.392334 5.167411 0.011825 0.484202 -8.298205 2.266375 -0.331295 -0.000000 0.000000 0.000000 -0.000000 0.000000 0.000000 -0.000000 0.000000 0.000000 0.907072 -16.294243 -12.791931 3.306780 -20.294978 -68.768571 0.000004 -1.631476 0.000009 -30.939685 -1.419342 -6.203089 -0.663003 2.160314 4.832507 11.853569 25.421597 17.058321 -0.000001 -0.000001 -0.000001 -0.429196 -0.876727 -7.932935 0.315535 1.898429 -18.871609 -0.000002 -0.000001 -0.000002 -0.075559 2.680229 -15.834498 0.297798 1.845772 -18.328855 0.000001 -0.000002 -0.000000 0.140018 3.655705 -21.271390 0.421090 2.182812 -21.835577 0.000000 0.000000 0.000003 0.976291 5.546946 -27.269966 0.297826 1.845849 -18.329613 -0.000000 0.000001 -0.000002 0.000001 0.000000 -0.000000 1.094088 15.279762 15.118656 11.469534 25.018669 59.153072 0.000005 6.738837 0.000010 -17.293634 -0.669704 6.968641 -1.665255 -0.174478 -4.219018 12.710963 -29.825326 -16.130940 -0.000001 -0.000001 -0.000000 -0.390347 1.213567 6.802452 0.214477 -1.398440 17.438067 -0.000005 0.000000 0.000002 -0.136226 -2.205097 14.998916 0.214444 -1.398347 17.436868 0.000004 -0.000001 0.000001 0.030613 -3.075748 20.451039 0.308438 -1.668275 20.948564 0.000000 -0.000001 0.000000 0.789945 -4.864813 26.476824 0.214469 -1.398420 17.437681 0.000001 -0.000001 -0.000002 0.000002 0.000001 -0.000001 0.000000 0.000001 -0.000000 0.000000 0.000001 -0.000000 0.000000 0.000001 -0.000000 0.000000 0.000001 -0.000000 0.000000 0.000001 -0.000000 0.000000 0.000000 -0.000000 0.000000 0.000001 -0.000000 0.000000 0.000001 -0.000000 0.000000 0.000000 -0.000000 -0.000000 0.000000 -0.000000 -0.000000 0.000000 -0.000000 0.000000 -0.000000 -0.000000 
-0.047532 82.285400 0.273909 -3.951173 -5.153679 -2.715305 -0.000000 0.000000 0.000000 -11.606595 14.620221 10.088602 13.567351 1.921310 4.192035 1.178695 0.552075 -7.647440 0.000000 0.000000 0.000000 0.000000 0.000000 0.000000 -0.000000 -0.000001 0.000000 -0.651663 -10.277748 2.170829 10.021264 -9.962536 -3.289161 -5.025944 -1.778068 3.502379 0.000000 0.000000 0.000000 0.000000 0.000000 0.000000 0.000001 -0.000000 0.000000 3.538751 1.225622 2.031298 1.455646 0.147255 1.301036 1.431071 0.167333 1.303884 4.934136 0.060120 0.504329 -8.746914 2.734482 -0.436975 -0.000000 0.000000 -0.000000 -0.000000 0.000000 -0.000000 -0.000000 0.000000 -0.000000 0.841111 -15.673542 -13.034330 3.004568 -20.478659 -68.226978 -0.000006 -1.745085 -0.000009 -29.736321 -1.456960 -6.225402 -0.663010 2.160313 4.832499 11.853577 25.421599 17.058293 -0.000003 -0.000000 -0.000000 -0.453166 -0.830820 -8.356531 0.374655 2.063223 -20.582099 0.000000 0.000000 -0.000004 -0.074633 2.697096 -15.995231 0.333508 1.950198 -19.406915 0.000001 0.000001 0.000000 0.143685 3.671967 -21.432348 0.463133 2.284846 -22.914045 -0.000001 -0.000000 -0.000000 0.985303 5.560845 -27.431576 0.333533 1.950263 -19.407595 -0.000000 -0.000000 0.000005 0.000003 -0.000000 0.000001 1.036120 15.247979 15.336602 10.563741 23.668153 59.320118 0.000002 6.718382 -0.000020 -15.749667 -0.714538 7.080276 -1.665260 -0.174478 -4.219019 12.710965 -29.825329 -16.130911 -0.000000 0.000004 0.000001 -0.390351 1.213567 6.802453 0.214477 -1.398442 17.438067 0.000002 0.000002 0.000002 -0.136229 -2.205108 14.998896 0.214453 -1.398354 17.436884 0.000000 0.000001 0.000003 0.030610 -3.075761 20.451017 0.308441 -1.668280 20.948545 0.000001 0.000001 0.000001 0.789938 -4.864823 26.476819 0.214464 -1.398413 17.437702 0.000000 -0.000001 0.000004 -0.000000 0.000000 -0.000000 -0.000000 -0.000000 -0.000000 -0.000000 -0.000000 -0.000000 -0.000000 -0.000000 -0.000000 -0.000000 -0.000000 -0.000000 -0.000000 -0.000000 -0.000000 -0.000000 -0.000000 -0.000000 -0.000000 -0.000000 -0.000000 -0.000000 -0.000000 -0.000000 -0.000000 -0.000000 -0.000000 0.000000 -0.000000 -0.000000 0.000000 -0.000000 -0.000000 -0.000000 0.000000 0.000000 
